<mxfile host="app.diagrams.net" agent="Mozilla/5.0 (Windows NT 10.0; Win64; x64) AppleWebKit/537.36 (KHTML, like Gecko) Chrome/131.0.0.0 Safari/537.36" version="26.0.2">
  <diagram name="PÃ¡gina-1" id="rx3M1TyBQRlpond7g1Dg">
    <mxGraphModel dx="1050" dy="557" grid="1" gridSize="10" guides="1" tooltips="1" connect="1" arrows="1" fold="1" page="1" pageScale="1" pageWidth="827" pageHeight="1169" background="#ffffff" math="0" shadow="0">
      <root>
        <mxCell id="0" />
        <mxCell id="1" parent="0" />
        <mxCell id="C-3bYeBmxBXz8DzMYzcb-14" style="edgeStyle=orthogonalEdgeStyle;rounded=0;orthogonalLoop=1;jettySize=auto;html=1;entryX=0;entryY=0.5;entryDx=0;entryDy=0;exitX=0.5;exitY=0;exitDx=0;exitDy=0;" edge="1" parent="1" source="C-3bYeBmxBXz8DzMYzcb-2" target="C-3bYeBmxBXz8DzMYzcb-12">
          <mxGeometry relative="1" as="geometry" />
        </mxCell>
        <mxCell id="C-3bYeBmxBXz8DzMYzcb-2" value="Api &quot;Order&quot;" style="whiteSpace=wrap;html=1;aspect=fixed;" vertex="1" parent="1">
          <mxGeometry x="354" y="200" width="120" height="120" as="geometry" />
        </mxCell>
        <mxCell id="C-3bYeBmxBXz8DzMYzcb-6" style="edgeStyle=orthogonalEdgeStyle;rounded=0;orthogonalLoop=1;jettySize=auto;html=1;entryX=0;entryY=0.5;entryDx=0;entryDy=0;" edge="1" parent="1" source="C-3bYeBmxBXz8DzMYzcb-3" target="C-3bYeBmxBXz8DzMYzcb-5">
          <mxGeometry relative="1" as="geometry" />
        </mxCell>
        <mxCell id="C-3bYeBmxBXz8DzMYzcb-3" value="Produto externo A" style="rounded=0;whiteSpace=wrap;html=1;" vertex="1" parent="1">
          <mxGeometry x="50" y="110" width="120" height="60" as="geometry" />
        </mxCell>
        <mxCell id="C-3bYeBmxBXz8DzMYzcb-15" style="edgeStyle=orthogonalEdgeStyle;rounded=0;orthogonalLoop=1;jettySize=auto;html=1;entryX=0.25;entryY=1;entryDx=0;entryDy=0;" edge="1" parent="1" source="C-3bYeBmxBXz8DzMYzcb-4" target="C-3bYeBmxBXz8DzMYzcb-2">
          <mxGeometry relative="1" as="geometry" />
        </mxCell>
        <mxCell id="C-3bYeBmxBXz8DzMYzcb-4" value="Produto externo B" style="rounded=0;whiteSpace=wrap;html=1;" vertex="1" parent="1">
          <mxGeometry x="80" y="340" width="120" height="60" as="geometry" />
        </mxCell>
        <mxCell id="C-3bYeBmxBXz8DzMYzcb-7" style="edgeStyle=orthogonalEdgeStyle;rounded=0;orthogonalLoop=1;jettySize=auto;html=1;entryX=0;entryY=0.25;entryDx=0;entryDy=0;" edge="1" parent="1" source="C-3bYeBmxBXz8DzMYzcb-5" target="C-3bYeBmxBXz8DzMYzcb-2">
          <mxGeometry relative="1" as="geometry" />
        </mxCell>
        <mxCell id="C-3bYeBmxBXz8DzMYzcb-5" value="Kafka" style="rounded=1;whiteSpace=wrap;html=1;" vertex="1" parent="1">
          <mxGeometry x="250" y="110" width="120" height="60" as="geometry" />
        </mxCell>
        <mxCell id="C-3bYeBmxBXz8DzMYzcb-8" value="DB" style="shape=cylinder3;whiteSpace=wrap;html=1;boundedLbl=1;backgroundOutline=1;size=15;" vertex="1" parent="1">
          <mxGeometry x="690" y="220" width="60" height="80" as="geometry" />
        </mxCell>
        <mxCell id="C-3bYeBmxBXz8DzMYzcb-12" value="Redis" style="rounded=1;whiteSpace=wrap;html=1;" vertex="1" parent="1">
          <mxGeometry x="490" y="80" width="120" height="60" as="geometry" />
        </mxCell>
        <mxCell id="C-3bYeBmxBXz8DzMYzcb-13" style="edgeStyle=orthogonalEdgeStyle;rounded=0;orthogonalLoop=1;jettySize=auto;html=1;exitX=0.5;exitY=1;exitDx=0;exitDy=0;entryX=0.5;entryY=0;entryDx=0;entryDy=0;entryPerimeter=0;" edge="1" parent="1" source="C-3bYeBmxBXz8DzMYzcb-12" target="C-3bYeBmxBXz8DzMYzcb-8">
          <mxGeometry relative="1" as="geometry" />
        </mxCell>
        <mxCell id="C-3bYeBmxBXz8DzMYzcb-16" style="edgeStyle=orthogonalEdgeStyle;rounded=0;orthogonalLoop=1;jettySize=auto;html=1;exitX=1;exitY=0.5;exitDx=0;exitDy=0;entryX=0;entryY=0.5;entryDx=0;entryDy=0;entryPerimeter=0;startArrow=classicThin;startFill=1;" edge="1" parent="1" source="C-3bYeBmxBXz8DzMYzcb-2" target="C-3bYeBmxBXz8DzMYzcb-8">
          <mxGeometry relative="1" as="geometry" />
        </mxCell>
      </root>
    </mxGraphModel>
  </diagram>
</mxfile>
